
<svg version="1.0" xmlns="http://www.w3.org/2000/svg"
 width="740.000000pt" height="740.000000pt" viewBox="0 0 740.000000 740.000000"
 preserveAspectRatio="xMidYMid meet">

<g transform="translate(0.000000,740.000000) scale(0.100000,-0.100000)"
fill="#000000" stroke="none">
<path d="M4771 6464 c-381 -52 -713 -219 -966 -485 -125 -132 -204 -245 -295
-422 l-56 -107 -46 62 c-52 70 -189 209 -258 261 -258 194 -588 292 -875 258
-260 -30 -467 -132 -645 -317 -298 -311 -426 -800 -325 -1247 66 -293 199
-606 369 -867 143 -218 374 -463 611 -648 191 -149 705 -482 743 -482 7 0 12
8 12 18 0 12 -40 45 -117 97 -408 275 -714 534 -915 775 -267 319 -465 749
-533 1160 -21 122 -16 331 9 448 90 413 344 706 684 789 93 22 266 22 365 -1
406 -93 724 -420 777 -799 12 -83 33 -123 80 -154 62 -42 168 -23 213 38 10
14 29 70 42 125 122 515 445 901 877 1049 131 46 223 59 393 60 177 0 259 -14
397 -67 229 -87 403 -284 464 -523 25 -97 25 -319 0 -434 -59 -275 -221 -598
-460 -918 -150 -201 -256 -316 -659 -713 -358 -354 -473 -476 -623 -665 -275
-347 -487 -749 -634 -1200 -51 -158 -119 -425 -113 -442 12 -31 34 -5 84 99
294 617 578 1031 970 1413 151 147 210 198 555 486 148 125 327 279 397 343
504 465 848 1007 947 1496 125 614 -146 1183 -673 1412 -236 102 -522 139
-796 102z"/>
</g>
</svg>
